<svg width="38" height="25" viewBox="0 0 38 25" xmlns="http://www.w3.org/2000/svg"><path d="M20.0039 13.8782L-1.74846e-07 13.8782L0 11.8782L20.0039 11.8782L20.0039 13.8782Z"/><path fill-rule="evenodd" clip-rule="evenodd" d="M21.7583 22.7494L35.557 13.5877C36.1529 13.1921 36.1529 12.3171 35.557 11.9215L21.7583 2.75983C21.0937 2.31851 20.2052 2.79507 20.2052 3.59292L20.2052 21.9163C20.2052 22.7141 21.0937 23.1907 21.7583 22.7494ZM36.6633 15.2539C38.4508 14.0671 38.4508 11.4421 36.6633 10.2553L22.8646 1.09364C20.8706 -0.230302 18.2052 1.19939 18.2052 3.59292L18.2052 21.9163C18.2052 24.3098 20.8706 25.7395 22.8646 24.4156L36.6633 15.2539Z"/></svg>
