<svg width="22" height="22" viewBox="0 0 22 22" xmlns="http://www.w3.org/2000/svg"><path d="M14.074 0C14.6262 0 15.074 0.447715 15.074 1V5.21053C15.074 5.76281 14.6262 6.21053 14.074 6.21053C13.5217 6.21053 13.074 5.76281 13.074 5.21053V4.10526H9.33712C8.78484 4.10526 8.33712 3.65755 8.33712 3.10526C8.33712 2.55298 8.78484 2.10526 9.33712 2.10526H13.074V1C13.074 0.447715 13.5217 0 14.074 0ZM0.442383 9.42105C0.442383 8.86877 0.890098 8.42105 1.44238 8.42105H20.3898C20.942 8.42105 21.3898 8.86877 21.3898 9.42105V18.8947C21.3898 20.6098 19.9995 22 18.2845 22H3.54765C1.83267 22 0.442383 20.6098 0.442383 18.8947V9.42105ZM2.44238 10.4211V18.8947C2.44238 19.5052 2.93722 20 3.54765 20H18.2845C18.8949 20 19.3898 19.5052 19.3898 18.8947V10.4211H2.44238Z M3.54765 4.10352C2.93723 4.10352 2.44238 4.59836 2.44238 5.20878V9.41931C2.44238 9.97159 1.99467 10.4193 1.44238 10.4193C0.890098 10.4193 0.442383 9.97159 0.442383 9.41931V5.20878C0.442383 3.49379 1.83266 2.10352 3.54765 2.10352H5.65291C6.20519 2.10352 6.65291 2.55123 6.65291 3.10352C6.65291 3.6558 6.20519 4.10352 5.65291 4.10352H3.54765Z M5.65332 0C6.20561 0 6.65332 0.447715 6.65332 1V5.21053C6.65332 5.76281 6.20561 6.21053 5.65332 6.21053C5.10104 6.21053 4.65332 5.76281 4.65332 5.21053V1C4.65332 0.447715 5.10104 0 5.65332 0Z M16.7578 3.10352C16.7578 2.55123 17.2055 2.10352 17.7578 2.10352H18.2841C19.9992 2.10352 21.3894 3.4938 21.3894 5.20878V9.41931C21.3894 9.97159 20.9417 10.4193 20.3894 10.4193C19.8371 10.4193 19.3894 9.97159 19.3894 9.41931V5.20878C19.3894 4.59835 18.8946 4.10352 18.2841 4.10352H17.7578C17.2055 4.10352 16.7578 3.6558 16.7578 3.10352Z"/></svg>