<svg width="21" height="22" viewBox="0 0 21 22" xmlns="http://www.w3.org/2000/svg"><path d="M10.915 6C11.4673 6 11.915 6.44772 11.915 7V11H15.915C16.4673 11 16.915 11.4477 16.915 12C16.915 12.5522 16.4673 13 15.915 13H10.915C10.3628 13 9.91504 12.5522 9.91504 12V7C9.91504 6.44772 10.3628 6 10.915 6Z M6.71704 0.400059C7.04841 0.841887 6.95886 1.46869 6.51704 1.80006L4.51705 3.30005C4.07522 3.63142 3.44842 3.54187 3.11705 3.10005C2.78568 2.65822 2.87522 2.03142 3.31705 1.70005L5.31704 0.200059C5.75886 -0.131312 6.38566 -0.0417689 6.71704 0.400059Z M15.1161 0.400059C15.4474 -0.0417689 16.0742 -0.131312 16.5161 0.200059L18.5161 1.70005C18.9579 2.03142 19.0474 2.65822 18.7161 3.10005C18.3847 3.54187 17.7579 3.63142 17.3161 3.30005L15.3161 1.80006C14.8742 1.46869 14.7847 0.841887 15.1161 0.400059Z M0.916016 11.9999C0.916016 6.47712 5.39314 2 10.9159 2C16.4388 2 20.9159 6.47713 20.9159 11.9999C20.9159 17.5228 16.4388 21.9999 10.9159 21.9999C5.39314 21.9999 0.916016 17.5228 0.916016 11.9999ZM10.9159 4C6.49771 4 2.91602 7.58169 2.91602 11.9999C2.91602 16.4182 6.49771 19.9999 10.9159 19.9999C15.3342 19.9999 18.9159 16.4182 18.9159 11.9999C18.9159 7.58169 15.3342 4 10.9159 4Z"/></svg>