<svg width="22" height="22" viewBox="0 0 22 22" xmlns="http://www.w3.org/2000/svg"><path d="M15.2929 15.2929C15.6834 14.9024 16.3166 14.9024 16.7071 15.2929L21.7071 20.2929C22.0976 20.6834 22.0976 21.3166 21.7071 21.7071C21.3166 22.0976 20.6834 22.0976 20.2929 21.7071L15.2929 16.7071C14.9024 16.3166 14.9024 15.6834 15.2929 15.2929Z M0 9.57143C0 4.28527 4.28527 0 9.57143 0C14.8576 0 19.1429 4.28527 19.1429 9.57143C19.1429 12.2096 18.0742 14.6002 16.3484 16.3305C14.6168 18.0668 12.2188 19.1429 9.57143 19.1429C4.28527 19.1429 0 14.8576 0 9.57143ZM9.57143 2C5.38984 2 2 5.38984 2 9.57143C2 13.753 5.38984 17.1429 9.57143 17.1429C11.6661 17.1429 13.5606 16.2936 14.9324 14.9181C16.2994 13.5475 17.1429 11.6589 17.1429 9.57143C17.1429 5.38984 13.753 2 9.57143 2Z"/></svg>