<svg width="22" height="22" viewBox="0 0 22 22" xmlns="http://www.w3.org/2000/svg"><path d="M0 11C0 4.92487 4.92487 0 11 0C17.0751 0 22 4.92486 22 11C22 17.0751 17.0751 22 11 22C4.92486 22 0 17.0751 0 11ZM11 2C6.02943 2 2 6.02943 2 11C2 15.9705 6.02944 20 11 20C15.9705 20 20 15.9705 20 11C20 6.02944 15.9705 2 11 2Z M4.05381 17.9684C3.71214 18.3976 3.08757 18.4716 2.65489 18.1327C2.2201 17.7921 2.14372 17.1636 2.48428 16.7288L3.27153 17.3455C2.48428 16.7288 2.48465 16.7283 2.48503 16.7279L2.48583 16.7268L2.4876 16.7246L2.49178 16.7193L2.50272 16.7058C2.51118 16.6954 2.52196 16.6824 2.53511 16.6669C2.56139 16.6359 2.59713 16.5949 2.64261 16.5456C2.73355 16.4469 2.86357 16.3142 3.03489 16.1592C3.37753 15.8493 3.88595 15.4496 4.57732 15.0544C5.96647 14.2605 8.0689 13.4998 11.0005 13.4998C13.9322 13.4998 16.0346 14.2605 17.4238 15.0544C18.1152 15.4495 18.6236 15.8493 18.9662 16.1592C19.1376 16.3142 19.2676 16.4469 19.3585 16.5456C19.404 16.5949 19.4398 16.6358 19.466 16.6668C19.4792 16.6824 19.49 16.6954 19.4984 16.7058L19.5094 16.7193L19.5135 16.7246L19.5153 16.7268L19.5161 16.7278C19.5165 16.7283 19.5169 16.7288 18.754 17.3264L19.5169 16.7288C19.8574 17.1636 19.7811 17.7921 19.3463 18.1327C18.9136 18.4716 18.289 18.3976 17.9474 17.9684L17.9405 17.9601C17.9314 17.9495 17.9139 17.9292 17.8877 17.9008C17.8352 17.8439 17.7481 17.7542 17.6245 17.6424C17.3774 17.4188 16.9848 17.1071 16.4314 16.7908C15.331 16.1619 13.5689 15.4998 11.0005 15.4998C8.43217 15.4998 6.6701 16.1619 5.56975 16.7908C5.01637 17.1071 4.62378 17.4188 4.37661 17.6424C4.25302 17.7542 4.16593 17.8438 4.11349 17.9008C4.08727 17.9292 4.06976 17.9495 4.0607 17.9601L4.05381 17.9684Z M7.00195 8.00024C7.00195 5.79112 8.79276 4.00024 11.002 4.00024C13.2111 4.00024 15.002 5.79112 15.002 8.00024C15.002 10.2094 13.2111 12.0002 11.002 12.0002C8.79277 12.0002 7.00195 10.2094 7.00195 8.00024ZM11.002 6.00024C9.89735 6.00024 9.00195 6.89567 9.00195 8.00024C9.00195 9.10486 9.89734 10.0002 11.002 10.0002C12.1066 10.0002 13.002 9.10486 13.002 8.00024C13.002 6.89567 12.1066 6.00024 11.002 6.00024Z"/></svg>