<svg width="18" height="22" viewBox="0 0 18 22" xmlns="http://www.w3.org/2000/svg"><path d="M8.9001 0C4.0001 0 0.100098 4 0.100098 8.9C0.100098 10.2 0.700098 11.7 1.5001 13.1C2.3001 14.5 3.3001 15.9 4.3001 17.1C5.3001 18.3 6.3001 19.4 7.1001 20.2C7.5001 20.6 7.8001 20.9 8.0001 21.1C8.1001 21.2 8.2001 21.3 8.3001 21.4L8.4001 21.5L8.9001 22L9.6001 21.3L9.7001 21.2C9.8001 21.1 9.8001 21.1 10.0001 20.9C10.2001 20.7 10.5001 20.4 10.9001 20C11.6001 19.2 12.6001 18.1 13.7001 16.9C14.7001 15.7 15.7001 14.3 16.5001 12.9C17.3001 11.5 17.9001 10.1 17.9001 8.7C17.8001 4 13.8001 0 8.9001 0ZM14.7001 12C14.0001 13.2 13.1001 14.5 12.1001 15.7C11.1001 16.9 10.2001 17.9 9.5001 18.7C9.3001 18.9 9.1001 19.1 9.0001 19.2C8.9001 19 8.7001 18.9 8.5001 18.7C7.8001 17.9 6.8001 16.9 5.9001 15.7C4.9001 14.5 4.0001 13.2 3.3001 12C2.6001 10.7 2.2001 9.6 2.2001 8.8C2.1001 5.1 5.1001 2 8.9001 2C12.7001 2 15.8001 5.1 15.8001 8.9C15.8001 9.7 15.4001 10.8 14.7001 12Z M8.90015 10.9C10.0047 10.9 10.9001 10.0046 10.9001 8.90002C10.9001 7.79545 10.0047 6.90002 8.90015 6.90002C7.79558 6.90002 6.90015 7.79545 6.90015 8.90002C6.90015 10.0046 7.79558 10.9 8.90015 10.9Z"/></svg>