<svg width="22" height="23" viewBox="0 0 22 23" xmlns="http://www.w3.org/2000/svg"><path d="M15.4 0H6.6C2.9 0 0 2.9 0 6.6V15.5C0 19.1 2.9 22.1 6.6 22.1H15.5C19.1 22.1 22.1 19.2 22.1 15.5V6.6C22 2.9 19.1 0 15.4 0ZM20.1 15.4C20.1 17.9 18 20 15.4 20H10.8V13.1H14.2C14.8 13.1 15.2 12.7 15.2 12.1C15.2 11.5 14.8 11.1 14.2 11.1H10.8V11C10.8 9.8 11 9 11.4 8.5C11.8 8 12.5 7.6 14.3 7.6C14.9 7.6 15.3 7.2 15.3 6.6C15.3 6 14.9 5.6 14.3 5.6C12.2 5.6 10.7 6.1 9.8 7.3C9 8.4 8.8 9.8 8.8 11V11.1H7.7C7.1 11.1 6.7 11.5 6.7 12.1C6.7 12.7 7.1 13.1 7.7 13.1H8.9V20H6.6C4.1 20 2 18 2 15.4V6.6C2 4.1 4 2 6.6 2H15.5C18 2 20.1 4 20.1 6.6V15.4Z"/></svg>