<svg width="22" height="16" viewBox="0 0 22 16" xmlns="http://www.w3.org/2000/svg"><path d="M20.7001 1.4C19.5001 0.2 17.9001 0.2 14.9001 0.1C13.5001 0.1 12.2001 0 11.0001 0C9.8001 0 8.4001 2.23517e-08 7.1001 0.1C4.1001 0.2 2.5001 0.2 1.3001 1.4C0.100098 2.6 0.100098 4.3 0.100098 7.3V8.7C0.100098 11.7 0.100098 13.4 1.3001 14.6C2.5001 15.8 4.1001 15.8 7.1001 15.9C8.5001 15.9 9.8001 16 11.0001 16C12.2001 16 13.6001 16 14.9001 15.9C17.9001 15.8 19.5001 15.8 20.7001 14.6C21.9001 13.4 21.9001 11.7 21.9001 8.7V7.3C21.9001 4.3 21.9001 2.6 20.7001 1.4ZM20.3001 8.7C20.3001 11.5 20.1001 12.7 19.4001 13.4C18.8001 14.1 17.6001 14.1 14.8001 14.2C13.5001 14.2 12.1001 14.3 10.9001 14.3C9.7001 14.3 8.4001 14.3 7.0001 14.2C4.2001 14.1 3.1001 14.1 2.4001 13.4C1.9001 12.7 1.9001 11.5 1.9001 8.7V7.3C1.9001 4.5 1.9001 3.3 2.6001 2.6C3.2001 1.9 4.4001 1.9 7.2001 1.8C8.5001 1.8 9.9001 1.7 11.1001 1.7C12.3001 1.7 13.6001 1.7 15.0001 1.8C17.8001 1.9 18.9001 1.9 19.6001 2.6C20.2001 3.3 20.3001 4.4 20.3001 7.3V8.7Z M13.5 7.09995L10 5.09995C9.7 4.89995 9.3 4.89995 9 5.09995C8.7 5.29995 8.5 5.59995 8.5 5.99995V9.99995C8.5 10.4 8.7 10.7 9 10.9C9.3 11.1 9.7 11.1 10 10.9L13.5 8.89995C13.8 8.69995 14 8.39995 14 7.99995C14 7.59995 13.8 7.29995 13.5 7.09995Z"/></svg>